<?xml version="1.0" encoding="utf-8"?>
<!-- Generator: Adobe Illustrator 27.9.0, SVG Export Plug-In . SVG Version: 6.00 Build 0)  -->
<svg version="1.1" id="Camada_1" xmlns="http://www.w3.org/2000/svg" xmlns:xlink="http://www.w3.org/1999/xlink" x="0px" y="0px"
	 viewBox="0 0 1080 1080" style="enable-background:new 0 0 1080 1080;" xml:space="preserve">
<g>
	<g>
		<path d="M446.6,515.2v-14h-3.9v-4.3h3.9v-7.4h5c0,2.6,0,4.5-0.2,7.1l0.3,0.3h5.7v4.3h-5.7v12.9c0,2.2,0.9,3.2,2.8,3.2
			c1,0,2.2-0.2,3.5-0.7v3.9c-1.7,0.7-3.7,1-5.1,1C449.6,521.4,446.6,519.7,446.6,515.2z"/>
		<path d="M461.9,508.5c0-7.7,5.3-12.5,12-12.5c6.1,0,11.2,4.2,11.2,12.3h-17.7c0,4.9,2.6,8.6,6.8,8.6c3.2,0,5.5-2.3,6.1-5.2h5.1
			c-0.8,4.7-4.7,9.4-11.5,9.4C466.3,521.2,461.9,515.6,461.9,508.5z M467.9,506.4l11.8-0.8c0-2.9-2.2-5.3-5.6-5.3
			c-3.1,0-5.8,2.1-6.5,5.9L467.9,506.4z"/>
		<path d="M489.2,508.5c0-7.7,5.3-12.5,12-12.5c6,0,10.7,3.9,11.3,9.4h-5.2c-0.7-2.9-2.7-5.2-6-5.2c-3.7,0-6.5,3-6.5,8.2
			c0,4.9,2.6,8.6,6.8,8.6c3.2,0,5.5-2.3,6.1-5.2h5.1c-0.8,4.7-4.7,9.4-11.5,9.4C493.6,521.2,489.2,515.6,489.2,508.5z"/>
		<path d="M529.4,500.2c-4.9,0-7.4,5.1-7.4,11.8v8.5h-5.1v-23.6h5c0,2.8-0.4,5.6-1.1,8.2h0.4c1.5-5.4,5.1-9,10.1-9
			c5.3,0,8.8,4,8.8,9.1v15.3h-5.1v-13.6C535.1,502.5,532.8,500.2,529.4,500.2z"/>
		<path d="M544.3,508.5c0-7.7,5.3-12.5,12.3-12.5c7,0,12.3,5,12.3,12.7c0,7.7-5.3,12.5-12.3,12.5
			C549.6,521.2,544.3,516.3,544.3,508.5z M556.6,517c4,0,6.8-3.3,6.8-8.4c0-5.1-2.8-8.5-6.8-8.5c-4,0-6.8,3.3-6.8,8.5
			C549.8,513.8,552.6,517,556.6,517z"/>
	</g>
	<g>
		<path d="M488.9,538.5c0-4.3,2.9-7,6.7-7c3.4,0,6,2.2,6.3,5.2H499c-0.4-1.6-1.5-2.9-3.4-2.9c-2.1,0-3.6,1.7-3.6,4.5
			c0,2.7,1.5,4.8,3.8,4.8c1.8,0,3-1.3,3.4-2.9h2.9c-0.4,2.6-2.6,5.2-6.4,5.2C491.4,545.5,488.9,542.4,488.9,538.5z"/>
		<path d="M504.2,540.5V532h2.8v7.8c0,2.4,1.4,3.4,3.2,3.4c2.6,0,3.8-2.3,3.8-6V532h2.8v13.1H514c0-1.6,0.2-3.1,0.6-4.5h-0.2
			c-0.7,3-2,5-5.2,5C505.9,545.5,504.2,543.5,504.2,540.5z"/>
		<path d="M519.4,532h2.8c0,1.6-0.2,3.2-0.6,4.6h0.2c0.8-3,2.8-5.1,5.3-5.1v2.4c-2.7,0-4.9,2.8-4.9,6.5v4.7h-2.8V532z"/>
		<path d="M528.7,544.6v-2.8c1.5,1,3.6,1.5,5,1.5c1.2,0,2.4-0.5,2.4-1.7c0-3.1-7.5-1.2-7.5-6.2c0-2.7,2.5-3.7,5.1-3.7
			c1.7,0,3.1,0.4,4.1,0.8v2.3c-1.2-0.4-3.3-0.8-4.4-0.8c-1.1,0-1.8,0.3-1.8,1.1c0,2.8,7.5,1.2,7.5,6.3c0,2.8-2.5,4.2-5.7,4.2
			C531.9,545.5,530.2,545.2,528.7,544.6z"/>
		<path d="M540.8,538.5c0-4.3,2.9-7,6.8-7c3.9,0,6.8,2.8,6.8,7c0,4.3-2.9,7-6.8,7C543.8,545.5,540.8,542.8,540.8,538.5z
			 M547.7,543.2c2.2,0,3.8-1.8,3.8-4.7s-1.5-4.7-3.8-4.7c-2.2,0-3.8,1.8-3.8,4.7S545.4,543.2,547.7,543.2z"/>
		<path d="M556.5,544.6v-2.8c1.5,1,3.6,1.5,5,1.5c1.2,0,2.4-0.5,2.4-1.7c0-3.1-7.5-1.2-7.5-6.2c0-2.7,2.5-3.7,5.1-3.7
			c1.7,0,3.1,0.4,4.1,0.8v2.3c-1.2-0.4-3.3-0.8-4.4-0.8c-1.1,0-1.8,0.3-1.8,1.1c0,2.8,7.5,1.2,7.5,6.3c0,2.8-2.5,4.2-5.7,4.2
			C559.7,545.5,558,545.2,556.5,544.6z"/>
	</g>
</g>
</svg>
